# xmcd
#
# Track frame offsets: 
#        150
#        13127
#        21997
#        47547
#        59177
#        75477
#        91940
#        105637
#        122800
#        134675
#        145617
#        155927
#        168810
#        178275
#        196060
#        220107
#        232817
#        244750
#        258612
#        273455
#        289690
#        307435
#        332362
#
# Disc length: 4660 seconds
#
# Revision: 4
# Processed by: cddbd v1.4PL0 Copyright (c) Steve Scherf et al.
# Submitted via: ExactAudioCopy v0.95a4
#
DISCID=54123217
DTITLE=Kris Kristofferson - Live From The Philharmonic
DYEAR=1971
DGENRE=Country
TTITLE0=Late John Garfield Blues
TTITLE1=Jesus Was A Capricorn
TTITLE2=Nobody Wins
TTITLE3=Jesse Younger
TTITLE4=Loving Her Was Easier (Than Anything I'll Ever Do Again)
TTITLE5=Late Again (Gettin' Over You)
TTITLE6=Out Of Mind, Out Of Sight
TTITLE7=Sugar Man
TTITLE8=Billy Dee
TTITLE9=The Law Is For The Protection Of The People
TTITLE10=For The Good Times
TTITLE11=Sunday Mornin' Comin' Down
TTITLE12=Okie From Muskogee
TTITLE13=Border Lord
TTITLE14=Funny How Time Slips Away
TTITLE15=Me And Paul
TTITLE16=Mountain Dew
TTITLE17=The Pilgrim - Chapter 33
TTITLE18=Rainbow Road
TTITLE19=It Sure Was (Love)
TTITLE20=Help Me
TTITLE21=Me And Bobby McGee
TTITLE22=Whiskey, Whiskey
EXTD=
EXTT0=
EXTT1=
EXTT2=
EXTT3=
EXTT4=
EXTT5=
EXTT6=
EXTT7=
EXTT8=
EXTT9=
EXTT10=
EXTT11=
EXTT12=
EXTT13=
EXTT14=
EXTT15=
EXTT16=
EXTT17=
EXTT18=
EXTT19=
EXTT20=
EXTT21=
EXTT22=
PLAYORDER=
